<mxfile host="app.diagrams.net" modified="2023-10-20T16:45:51.007Z" agent="Mozilla/5.0 (Windows NT 10.0; Win64; x64) AppleWebKit/537.36 (KHTML, like Gecko) Chrome/118.0.0.0 Safari/537.36" etag="gccTetLB4vCqhjjHAUHS" version="22.0.6" type="github">
  <diagram id="C5RBs43oDa-KdzZeNtuy" name="Page-1">
    <mxGraphModel dx="819" dy="429" grid="1" gridSize="10" guides="1" tooltips="1" connect="1" arrows="1" fold="1" page="1" pageScale="1" pageWidth="827" pageHeight="1169" math="0" shadow="0">
      <root>
        <mxCell id="WIyWlLk6GJQsqaUBKTNV-0" />
        <mxCell id="WIyWlLk6GJQsqaUBKTNV-1" parent="WIyWlLk6GJQsqaUBKTNV-0" />
        <mxCell id="dsDoPabSDb1fDy_Sz9F3-0" value="Passenger" style="swimlane;childLayout=stackLayout;horizontal=1;startSize=50;horizontalStack=0;rounded=1;fontSize=14;fontStyle=0;strokeWidth=2;resizeParent=0;resizeLast=1;shadow=0;dashed=0;align=center;arcSize=4;whiteSpace=wrap;html=1;" vertex="1" parent="WIyWlLk6GJQsqaUBKTNV-1">
          <mxGeometry x="40" y="240" width="160" height="120" as="geometry" />
        </mxCell>
        <mxCell id="dsDoPabSDb1fDy_Sz9F3-1" value="first_name(string)&lt;br&gt;last_name(string)&lt;span style=&quot;white-space: pre;&quot;&gt;&#x9;&lt;/span&gt;" style="align=left;strokeColor=none;fillColor=none;spacingLeft=4;fontSize=12;verticalAlign=top;resizable=0;rotatable=0;part=1;html=1;" vertex="1" parent="dsDoPabSDb1fDy_Sz9F3-0">
          <mxGeometry y="50" width="160" height="70" as="geometry" />
        </mxCell>
        <mxCell id="dsDoPabSDb1fDy_Sz9F3-2" value="Ticket" style="swimlane;childLayout=stackLayout;horizontal=1;startSize=50;horizontalStack=0;rounded=1;fontSize=14;fontStyle=0;strokeWidth=2;resizeParent=0;resizeLast=1;shadow=0;dashed=0;align=center;arcSize=4;whiteSpace=wrap;html=1;" vertex="1" parent="WIyWlLk6GJQsqaUBKTNV-1">
          <mxGeometry x="310" y="90" width="160" height="150" as="geometry" />
        </mxCell>
        <mxCell id="dsDoPabSDb1fDy_Sz9F3-3" value="ticket_number(string)&lt;br&gt;price(float)&lt;br&gt;flight_class_id(int)&lt;br&gt;confirmation_number(string)" style="align=left;strokeColor=none;fillColor=none;spacingLeft=4;fontSize=12;verticalAlign=top;resizable=0;rotatable=0;part=1;html=1;" vertex="1" parent="dsDoPabSDb1fDy_Sz9F3-2">
          <mxGeometry y="50" width="160" height="100" as="geometry" />
        </mxCell>
        <mxCell id="dsDoPabSDb1fDy_Sz9F3-4" value="Flight" style="swimlane;childLayout=stackLayout;horizontal=1;startSize=50;horizontalStack=0;rounded=1;fontSize=14;fontStyle=0;strokeWidth=2;resizeParent=0;resizeLast=1;shadow=0;dashed=0;align=center;arcSize=4;whiteSpace=wrap;html=1;" vertex="1" parent="WIyWlLk6GJQsqaUBKTNV-1">
          <mxGeometry x="460" y="270" width="170" height="170" as="geometry" />
        </mxCell>
        <mxCell id="dsDoPabSDb1fDy_Sz9F3-5" value="number(string)&lt;br&gt;departure_datetime(dateTime)&lt;br&gt;arrival_datetime(dateTime)&lt;br&gt;durationInMinutes(int)&lt;br&gt;distanceInMiles(int)&lt;br&gt;departure_airport_id(int)&lt;br&gt;arrival_airport_id(int)" style="align=left;strokeColor=none;fillColor=none;spacingLeft=4;fontSize=12;verticalAlign=top;resizable=0;rotatable=0;part=1;html=1;" vertex="1" parent="dsDoPabSDb1fDy_Sz9F3-4">
          <mxGeometry y="50" width="170" height="120" as="geometry" />
        </mxCell>
        <mxCell id="dsDoPabSDb1fDy_Sz9F3-8" value="Airport" style="swimlane;childLayout=stackLayout;horizontal=1;startSize=50;horizontalStack=0;rounded=1;fontSize=14;fontStyle=0;strokeWidth=2;resizeParent=0;resizeLast=1;shadow=0;dashed=0;align=center;arcSize=4;whiteSpace=wrap;html=1;" vertex="1" parent="WIyWlLk6GJQsqaUBKTNV-1">
          <mxGeometry x="230" y="390" width="160" height="140" as="geometry" />
        </mxCell>
        <mxCell id="dsDoPabSDb1fDy_Sz9F3-9" value="IATACode(string)&lt;br&gt;name(string)&lt;br&gt;state(string)&lt;br&gt;city(string)" style="align=left;strokeColor=none;fillColor=none;spacingLeft=4;fontSize=12;verticalAlign=top;resizable=0;rotatable=0;part=1;html=1;" vertex="1" parent="dsDoPabSDb1fDy_Sz9F3-8">
          <mxGeometry y="50" width="160" height="90" as="geometry" />
        </mxCell>
        <mxCell id="dsDoPabSDb1fDy_Sz9F3-12" value="" style="edgeStyle=entityRelationEdgeStyle;fontSize=12;html=1;endArrow=ERmany;startArrow=ERone;rounded=1;startFill=0;" edge="1" parent="WIyWlLk6GJQsqaUBKTNV-1" source="dsDoPabSDb1fDy_Sz9F3-1" target="dsDoPabSDb1fDy_Sz9F3-3">
          <mxGeometry width="100" height="100" relative="1" as="geometry">
            <mxPoint x="320" y="300" as="sourcePoint" />
            <mxPoint x="420" y="200" as="targetPoint" />
          </mxGeometry>
        </mxCell>
        <mxCell id="dsDoPabSDb1fDy_Sz9F3-14" value="purchases" style="edgeLabel;html=1;align=center;verticalAlign=middle;resizable=0;points=[];" vertex="1" connectable="0" parent="dsDoPabSDb1fDy_Sz9F3-12">
          <mxGeometry x="-0.0011" y="-1" relative="1" as="geometry">
            <mxPoint as="offset" />
          </mxGeometry>
        </mxCell>
        <mxCell id="dsDoPabSDb1fDy_Sz9F3-16" value="" style="edgeStyle=entityRelationEdgeStyle;fontSize=12;html=1;endArrow=ERmany;startArrow=ERmany;rounded=1;exitX=0.5;exitY=0;exitDx=0;exitDy=0;" edge="1" parent="WIyWlLk6GJQsqaUBKTNV-1" source="dsDoPabSDb1fDy_Sz9F3-8" target="dsDoPabSDb1fDy_Sz9F3-5">
          <mxGeometry width="100" height="100" relative="1" as="geometry">
            <mxPoint x="290" y="440" as="sourcePoint" />
            <mxPoint x="390" y="340" as="targetPoint" />
            <Array as="points">
              <mxPoint x="310" y="380" />
            </Array>
          </mxGeometry>
        </mxCell>
        <mxCell id="dsDoPabSDb1fDy_Sz9F3-17" value="Departs/Arrives at" style="edgeLabel;html=1;align=center;verticalAlign=middle;resizable=0;points=[];" vertex="1" connectable="0" parent="dsDoPabSDb1fDy_Sz9F3-16">
          <mxGeometry x="-0.0112" relative="1" as="geometry">
            <mxPoint as="offset" />
          </mxGeometry>
        </mxCell>
        <mxCell id="dsDoPabSDb1fDy_Sz9F3-18" value="Airline" style="swimlane;childLayout=stackLayout;horizontal=1;startSize=50;horizontalStack=0;rounded=1;fontSize=14;fontStyle=0;strokeWidth=2;resizeParent=0;resizeLast=1;shadow=0;dashed=0;align=center;arcSize=4;whiteSpace=wrap;html=1;" vertex="1" parent="WIyWlLk6GJQsqaUBKTNV-1">
          <mxGeometry x="450" y="530" width="160" height="140" as="geometry" />
        </mxCell>
        <mxCell id="dsDoPabSDb1fDy_Sz9F3-19" value="name(string)" style="align=left;strokeColor=none;fillColor=none;spacingLeft=4;fontSize=12;verticalAlign=top;resizable=0;rotatable=0;part=1;html=1;" vertex="1" parent="dsDoPabSDb1fDy_Sz9F3-18">
          <mxGeometry y="50" width="160" height="90" as="geometry" />
        </mxCell>
        <mxCell id="dsDoPabSDb1fDy_Sz9F3-20" value="" style="edgeStyle=entityRelationEdgeStyle;fontSize=12;html=1;endArrow=ERoneToMany;rounded=1;exitX=1;exitY=0.5;exitDx=0;exitDy=0;" edge="1" parent="WIyWlLk6GJQsqaUBKTNV-1" source="dsDoPabSDb1fDy_Sz9F3-19" target="dsDoPabSDb1fDy_Sz9F3-5">
          <mxGeometry width="100" height="100" relative="1" as="geometry">
            <mxPoint x="550" y="480" as="sourcePoint" />
            <mxPoint x="620" y="450" as="targetPoint" />
          </mxGeometry>
        </mxCell>
        <mxCell id="dsDoPabSDb1fDy_Sz9F3-21" value="FlightClass" style="swimlane;childLayout=stackLayout;horizontal=1;startSize=50;horizontalStack=0;rounded=1;fontSize=14;fontStyle=0;strokeWidth=2;resizeParent=0;resizeLast=1;shadow=0;dashed=0;align=center;arcSize=4;whiteSpace=wrap;html=1;" vertex="1" parent="WIyWlLk6GJQsqaUBKTNV-1">
          <mxGeometry x="80" y="30" width="160" height="140" as="geometry" />
        </mxCell>
        <mxCell id="dsDoPabSDb1fDy_Sz9F3-22" value="name" style="align=left;strokeColor=none;fillColor=none;spacingLeft=4;fontSize=12;verticalAlign=top;resizable=0;rotatable=0;part=1;html=1;" vertex="1" parent="dsDoPabSDb1fDy_Sz9F3-21">
          <mxGeometry y="50" width="160" height="90" as="geometry" />
        </mxCell>
        <mxCell id="dsDoPabSDb1fDy_Sz9F3-23" value="" style="edgeStyle=entityRelationEdgeStyle;fontSize=12;html=1;endArrow=ERoneToMany;rounded=1;exitX=1;exitY=0.5;exitDx=0;exitDy=0;entryX=0;entryY=0.25;entryDx=0;entryDy=0;startArrow=ERone;startFill=0;" edge="1" parent="WIyWlLk6GJQsqaUBKTNV-1" source="dsDoPabSDb1fDy_Sz9F3-22" target="dsDoPabSDb1fDy_Sz9F3-3">
          <mxGeometry width="100" height="100" relative="1" as="geometry">
            <mxPoint x="210" y="230" as="sourcePoint" />
            <mxPoint x="310" y="130" as="targetPoint" />
          </mxGeometry>
        </mxCell>
        <mxCell id="dsDoPabSDb1fDy_Sz9F3-25" value="" style="edgeStyle=entityRelationEdgeStyle;fontSize=12;html=1;endArrow=ERoneToMany;exitX=0.5;exitY=0;exitDx=0;exitDy=0;jumpStyle=none;entryX=1;entryY=0.5;entryDx=0;entryDy=0;strokeColor=default;curved=1;" edge="1" parent="WIyWlLk6GJQsqaUBKTNV-1" source="dsDoPabSDb1fDy_Sz9F3-4" target="dsDoPabSDb1fDy_Sz9F3-3">
          <mxGeometry width="100" height="100" relative="1" as="geometry">
            <mxPoint x="682.72" y="355.03999999999996" as="sourcePoint" />
            <mxPoint x="520" y="165" as="targetPoint" />
          </mxGeometry>
        </mxCell>
        <mxCell id="dsDoPabSDb1fDy_Sz9F3-26" value="issued for" style="edgeLabel;html=1;align=center;verticalAlign=middle;resizable=0;points=[];" vertex="1" connectable="0" parent="dsDoPabSDb1fDy_Sz9F3-25">
          <mxGeometry x="0.2566" y="-2" relative="1" as="geometry">
            <mxPoint x="-1" as="offset" />
          </mxGeometry>
        </mxCell>
      </root>
    </mxGraphModel>
  </diagram>
</mxfile>
